<?xml version="1.0" encoding="utf-8"?>
<!-- Generator: Adobe Illustrator 21.1.0, SVG Export Plug-In . SVG Version: 6.00 Build 0)  -->
<svg version="1.1" id="Layer_1" xmlns="http://www.w3.org/2000/svg" xmlns:xlink="http://www.w3.org/1999/xlink" x="0px" y="0px"
	 viewBox="0 0 864 1728" style="enable-background:new 0 0 864 1728;" xml:space="preserve">
<style type="text/css">
	.st0{fill:url(#SVGID_1_);}
	.st1{fill:none;stroke:#1E1208;stroke-width:4;stroke-linecap:round;stroke-linejoin:round;}
	.st2{fill:url(#SVGID_2_);}
	.st3{fill:url(#SVGID_3_);}
	.st4{fill:url(#SVGID_4_);}
	.st5{fill:#FFD9CC;}
	.st6{fill:none;stroke:#1E1208;stroke-width:4;stroke-miterlimit:10;}
	.st7{fill:#1E1208;}
	.st8{fill:none;stroke:#000000;stroke-width:2;stroke-miterlimit:10;}
	.st9{fill:url(#SVGID_5_);}
	.st10{fill:none;stroke:#000000;stroke-width:4;stroke-linecap:round;stroke-linejoin:round;}
	.st11{fill:url(#SVGID_6_);}
</style>
<g>
	<g id="XMLID_4_">
		<g>
			<linearGradient id="SVGID_1_" gradientUnits="userSpaceOnUse" x1="607.9863" y1="473.8906" x2="272.3031" y2="1080.1549">
				<stop  offset="0" style="stop-color:#EBD7AE"/>
				<stop  offset="4.265273e-02" style="stop-color:#CAB692"/>
				<stop  offset="9.349956e-02" style="stop-color:#AB9777"/>
				<stop  offset="0.1511" style="stop-color:#8F7B60"/>
				<stop  offset="0.2161" style="stop-color:#79654E"/>
				<stop  offset="0.2921" style="stop-color:#68543F"/>
				<stop  offset="0.3861" style="stop-color:#5D4935"/>
				<stop  offset="0.5178" style="stop-color:#564230"/>
				<stop  offset="0.8837" style="stop-color:#54402E"/>
				<stop  offset="1" style="stop-color:#54402E"/>
			</linearGradient>
			<path class="st0" d="M752.5,743.8c-7.1-0.4-14.1-0.7-21.2-1.1c5.1,10.9,12.9,20.4,22.5,27.4c-5.8,3.9-13.7,4.1-19.7,0.5
				c10,13.3,18.5,27.8,25.3,43.1c-4.6-7.1-12-12.3-20.1-14.2c3.5,11.9,4.9,24.4,4.2,36.8c-6.2,0.1-12-5.6-12.2-12
				c-0.9,18.4,2.6,37.1,10.1,53.8c-4.9-7.7-9.9-15.4-14.8-23.2c-0.7,12.2,1.2,24.6,5.5,36c-6.2-3.7-12.4-7.4-18.6-11
				c-2.2,12.4-0.6,25.5,4.6,36.9c-2.8-5.7-7.5-10.4-13.2-13.1c1.6,11.9,4.9,23.6,9.9,34.6c-6.8,0.9-13.7,0.2-20.2-2
				c3.7,13.1,7.8,26.1,12,39c-6.1-3.9-12.1-7.9-18.2-11.8c1.7,12.3,3.5,24.5,5.2,36.8c-7.4-2.6-14.4-6.5-20.5-11.4
				c-0.8,12.5,0.3,25.1,3.2,37.3c-3.8-2.5-7.5-5.1-11.3-7.6c-2.7,6.8-3.8,14.3-3.1,21.7c-8.8-2-14.8-12.3-12.4-21.1
				c-3.4,12.2-3.3,25.3,0.3,37.4c-7.3-0.6-13.7-7.4-13.9-14.9c-0.8,9-1.5,18-2.3,27c-10.4-6.7-20.7-13.3-31.1-20
				c2.7,10.2,5.4,20.4,8,30.6c-7.4,1.3-15.3-3.4-18-10.5c-1.3,7.8-0.5,15.9,2.2,23.3c-9,0.5-18.1-3.7-23.6-11
				c-4.3,7-6.2,15.7-5.2,24c-7.8-2.1-14.5-7.8-18-15.1c-3.6,4.5-5.5,10.4-5.3,16.2c-7.9-6.6-14.1-15.3-17.7-25.1
				c-5.2,5.8-5.3,15.6-0.2,21.5c-11.5,0.4-22.7-7.7-26.2-18.9c-0.1,4.2-0.3,8.3-0.4,12.5c-19.6-3.6-40.6-12.2-56.1-24.9
				c-15.5,12.7-34.1,21.4-53.7,24.9c-0.1-4.2-0.3-8.3-0.4-12.5c-3.5,11.2-14.8,19.3-26.3,18.9c5.1-5.9,5-15.7-0.1-21.5
				c-3.6,9.7-9.8,18.5-17.7,25.1c0.2-5.8-1.7-11.7-5.3-16.2c-3.5,7.4-10.3,13-18.1,15.1c1.1-8.3-0.8-16.9-5.2-24
				c-5.5,7.2-14.6,11.5-23.6,11c2.7-7.4,3.4-15.5,2.2-23.3c-2.7,7.1-10.6,11.7-18,10.5c2.7-10.2,5.3-20.4,8-30.6
				c-10.4,6.7-20.7,13.3-31.1,20c-0.8-9-1.5-18-2.3-27c-0.2,7.5-6.5,14.4-13.9,14.9c3.6-12.1,3.8-25.3,0.3-37.4
				c2.4,8.8-3.6,19.1-12.4,21.1c0.7-7.3-0.4-14.8-3.1-21.7c-3.8,2.5-7.5,5.1-11.3,7.6c2.9-12.2,4-24.8,3.2-37.3
				c-6.1,5-13.1,8.8-20.5,11.4c1.7-12.3,3.5-24.5,5.2-36.8c-6.1,3.9-12.1,7.9-18.2,11.8c4.3-12.9,8.3-25.9,12.1-39
				c-6.5,2.2-13.4,2.8-20.2,2c4.9-10.9,8.3-22.6,9.9-34.6c-5.6,2.6-10.3,7.2-13.1,12.9c5-11.4,6.6-24.4,4.4-36.7
				c-6.2,3.7-12.4,7.4-18.6,11c4.3-11.4,6.2-23.8,5.5-36c-4.9,7.7-9.9,15.4-14.8,23.2c7.5-16.8,11-35.4,10.1-53.8
				c-0.2,6.4-6,12-12.2,12c-0.6-12.4,0.8-24.9,4.2-36.8c-8.1,1.9-15.5,7.1-20.2,14.2c6.8-15.3,15.3-29.8,25.3-43.1
				c-5.9,3.6-13.9,3.4-19.7-0.5c9.6-7,17.5-16.5,22.5-27.4c-7.1,0.4-14.1,0.7-21.2,1.1c10.5-9.5,19.8-20.5,27.4-32.5
				c-7.1,1.3-14.3,2.6-21.4,3.9c9.4-11,17.8-22.9,25-35.5c-6.9,0.8-13.5,3.3-19.2,7.2c6.6-11.7,14.5-22.6,23.6-32.4
				c-7.4,0.8-15,0.1-22.2-2c14.5-7.1,26.8-19,34.4-33.5c-5,3.4-11.5,4.4-17.3,2.7c7.8-5.8,14.9-12.7,20.9-20.5
				c-9,1.1-18.1,2.1-27.1,3.2c16.8-13,33.7-26,50.5-38.9c-8.8,0.2-17.7,0.3-26.5,0.5c13.8-8.5,28.4-15.3,43.7-20.4
				c-8.1-1.2-16.4-0.5-24.2,1.8c12-9.3,25-17.4,38.6-24c-8.7-0.8-17-5.3-22.6-12.2c14.4,2.2,29.3,0.2,42.8-5.5
				c-6.6-8.9-17.4-14.4-28.3-14.6c73.8-22,149.5-37.5,226-46.1c76.5,8.6,122.1,24.1,196,46.1c-10.9,0.2-21.7,5.7-28.3,14.6
				c13.4,5.7,28.4,7.6,42.8,5.5c-5.6,6.9-13.9,11.4-22.6,12.2c13.6,6.7,26.6,14.7,38.6,24c-7.8-2.4-16.1-3-24.2-1.8
				c15.2,5.1,29.9,12,43.7,20.4c-8.8-0.2-17.7-0.3-26.5-0.5c16.9,13,33.7,26,50.6,38.9c-9-1.1-18.1-2.1-27.1-3.2
				c6,7.8,13,14.7,20.9,20.5c-5.8,1.7-12.3,0.7-17.3-2.7c7.6,14.5,19.9,26.4,34.4,33.5c-7.2,2.1-14.8,2.8-22.2,2
				c9,9.8,17,20.7,23.6,32.4c-5.7-4-12.4-6.5-19.2-7.2c7.2,12.6,15.5,24.5,25,35.5c-7.1-1.3-14.3-2.6-21.4-3.9
				C732.7,723.4,741.9,734.3,752.5,743.8z"/>
		</g>
		<g>
			<path class="st1" d="M168.9,916.7c2.8-5.6,7.5-10.2,13.1-12.9c-1.6,11.9-4.9,23.6-9.9,34.6c6.8,0.9,13.7,0.2,20.2-2
				c-3.8,13.1-7.8,26.1-12.1,39c6.1-3.9,12.1-7.9,18.2-11.8c-1.8,12.3-3.5,24.5-5.2,36.8c7.4-2.6,14.3-6.5,20.5-11.4
				c0.8,12.5-0.3,25.1-3.2,37.3c3.8-2.5,7.5-5.1,11.3-7.6c2.7,6.8,3.8,14.3,3.1,21.7c8.8-2,14.8-12.3,12.4-21.1
				c3.4,12.2,3.3,25.3-0.3,37.4c7.3-0.6,13.7-7.4,13.9-14.9c0.8,9,1.5,18,2.3,27c10.4-6.7,20.7-13.3,31.1-20
				c-2.7,10.2-5.4,20.4-8,30.6c7.4,1.3,15.3-3.4,18-10.5c1.2,7.8,0.5,15.9-2.2,23.3c9,0.5,18.1-3.7,23.6-11c4.4,7,6.2,15.7,5.2,24
				c7.8-2.1,14.5-7.8,18.1-15.1c3.6,4.5,5.5,10.4,5.3,16.2c7.9-6.6,14.1-15.3,17.7-25.1c5.2,5.8,5.3,15.6,0.1,21.5
				c11.5,0.4,22.7-7.7,26.3-18.9c0.1,4.2,0.3,8.3,0.4,12.5c19.6-3.6,38.2-12.2,53.7-24.9"/>
			<path class="st1" d="M168.8,916.9c-0.2,0.5-0.4,1-0.7,1.4C168.3,917.8,168.5,917.4,168.8,916.9z"/>
			<path class="st1" d="M168.8,916.9c0-0.1,0.1-0.1,0.1-0.2"/>
			<path class="st1" d="M458.4,445.1c-76.5,8.6-152.2,24.1-226,46.1c10.9,0.2,21.6,5.7,28.3,14.6c-13.4,5.7-28.4,7.6-42.8,5.5
				c5.6,6.9,13.9,11.4,22.6,12.2c-13.6,6.7-26.6,14.7-38.6,24c7.8-2.4,16.1-3,24.2-1.8c-15.3,5.1-29.9,12-43.7,20.4
				c8.8-0.2,17.7-0.3,26.5-0.5c-16.8,13-33.7,26-50.5,38.9c9-1.1,18.1-2.1,27.1-3.2c-6,7.8-13,14.7-20.9,20.5
				c5.8,1.7,12.3,0.7,17.3-2.7c-7.6,14.5-19.9,26.4-34.4,33.5c7.2,2.1,14.8,2.8,22.2,2c-9.1,9.8-17,20.7-23.6,32.4
				c5.7-4,12.4-6.5,19.2-7.2c-7.2,12.6-15.5,24.5-25,35.5c7.1-1.3,14.3-2.6,21.4-3.9c-7.7,12-16.9,23-27.4,32.5
				c7.1-0.4,14.1-0.7,21.2-1.1c-5.1,10.9-12.9,20.4-22.5,27.4c5.8,3.9,13.7,4.1,19.7,0.5c-10,13.3-18.5,27.8-25.3,43.1
				c4.7-7.1,12-12.3,20.2-14.2c-3.4,11.9-4.9,24.4-4.2,36.8c6.2,0.1,12-5.6,12.2-12c0.9,18.4-2.6,37.1-10.1,53.8
				c4.9-7.7,9.9-15.4,14.8-23.2c0.7,12.2-1.2,24.6-5.5,36c6.2-3.7,12.4-7.4,18.6-11c2.2,12.3,0.6,25.3-4.4,36.7"/>
			<path class="st1" d="M718.1,916.9c-2.8-5.7-7.5-10.4-13.2-13.1c1.6,11.9,4.9,23.6,9.9,34.6c-6.8,0.9-13.7,0.2-20.2-2
				c3.7,13.1,7.8,26.1,12,39c-6.1-3.9-12.1-7.9-18.2-11.8c1.7,12.3,3.5,24.5,5.2,36.8c-7.4-2.6-14.4-6.5-20.5-11.4
				c-0.8,12.5,0.3,25.1,3.2,37.3c-3.8-2.5-7.5-5.1-11.3-7.6c-2.7,6.8-3.8,14.3-3.1,21.7c-8.8-2-14.8-12.3-12.4-21.1
				c-3.4,12.2-3.3,25.3,0.3,37.4c-7.3-0.6-13.7-7.4-13.9-14.9c-0.8,9-1.5,18-2.3,27c-10.4-6.7-20.7-13.3-31.1-20
				c2.7,10.2,5.4,20.4,8,30.6c-7.4,1.3-15.3-3.4-18-10.5c-1.3,7.8-0.5,15.9,2.2,23.3c-9,0.5-18.1-3.7-23.6-11
				c-4.3,7-6.2,15.7-5.2,24c-7.8-2.1-14.5-7.8-18-15.1c-3.6,4.5-5.5,10.4-5.3,16.2c-7.9-6.6-14.1-15.3-17.7-25.1
				c-5.2,5.8-5.3,15.6-0.2,21.5c-11.5,0.4-22.7-7.7-26.2-18.9c-0.1,4.2-0.3,8.3-0.4,12.5c-19.6-3.6-40.6-12.2-56.1-24.9"/>
			<path class="st1" d="M718.1,916.9c0.2,0.5,0.4,0.9,0.6,1.4C718.5,917.9,718.3,917.4,718.1,916.9z"/>
			<path class="st1" d="M458.4,445.1c76.5,8.6,122.1,24.1,196,46.1c-10.9,0.2-21.7,5.7-28.3,14.6c13.4,5.7,28.4,7.6,42.8,5.5
				c-5.6,6.9-13.9,11.4-22.6,12.2c13.6,6.7,26.6,14.7,38.6,24c-7.8-2.4-16.1-3-24.2-1.8c15.2,5.1,29.9,12,43.7,20.4
				c-8.8-0.2-17.7-0.3-26.5-0.5c16.9,13,33.7,26,50.6,38.9c-9-1.1-18.1-2.1-27.1-3.2c6,7.8,13,14.7,20.9,20.5
				c-5.8,1.7-12.3,0.7-17.3-2.7c7.6,14.5,19.9,26.4,34.4,33.5c-7.2,2.1-14.8,2.8-22.2,2c9,9.8,17,20.7,23.6,32.4
				c-5.7-4-12.4-6.5-19.2-7.2c7.2,12.6,15.5,24.5,25,35.5c-7.1-1.3-14.3-2.6-21.4-3.9c7.7,12,16.9,23,27.4,32.5
				c-7.1-0.4-14.1-0.7-21.2-1.1c5.1,10.9,12.9,20.4,22.5,27.4c-5.8,3.9-13.7,4.1-19.7,0.5c10,13.3,18.5,27.8,25.3,43.1
				c-4.6-7.1-12-12.3-20.1-14.2c3.5,11.9,4.9,24.4,4.2,36.8c-6.2,0.1-12-5.6-12.2-12c-0.9,18.4,2.6,37.1,10.1,53.8
				c-4.9-7.7-9.9-15.4-14.8-23.2c-0.7,12.2,1.2,24.6,5.5,36c-6.2-3.7-12.4-7.4-18.6-11c-2.2,12.4-0.6,25.5,4.6,36.9"/>
		</g>
	</g>
</g>
<g>
	<g id="XMLID_7_">
		<g>
			<radialGradient id="SVGID_2_" cx="564.2992" cy="85.2908" r="449.3284" gradientUnits="userSpaceOnUse">
				<stop  offset="0" style="stop-color:#EBD792"/>
				<stop  offset="0" style="stop-color:#EBD79A"/>
				<stop  offset="0" style="stop-color:#EBD7A5"/>
				<stop  offset="0" style="stop-color:#EBD7AC"/>
				<stop  offset="0" style="stop-color:#EBD7AE"/>
				<stop  offset="5.939704e-02" style="stop-color:#D8C49E"/>
				<stop  offset="0.203" style="stop-color:#B09C7C"/>
				<stop  offset="0.3509" style="stop-color:#8F7B60"/>
				<stop  offset="0.5019" style="stop-color:#75614A"/>
				<stop  offset="0.6572" style="stop-color:#624E3A"/>
				<stop  offset="0.8195" style="stop-color:#584431"/>
				<stop  offset="1" style="stop-color:#54402E"/>
			</radialGradient>
			<path class="st2" d="M448.7,510L448.7,510c-9.6,6.9-14.4,6.6-25.9,9.2c-12.1-0.6-24.4,1.9-35.2,7.4c-0.3-2.2-0.6-4.3-0.9-6.4
				c-2.3,3.3-7.4,4.3-10.7,2c-2.8,1.1-5.5,2.3-8.2,3.4c1.8-1,0.5-4.6-1.8-4.8c-2.4-0.2-4.3,1.8-5.9,3.6c-1.5,1.8-3.4,3.8-5.8,3.8
				c-0.5-4.7-7.9-2.7-11.3,0.6c-0.9-1.9-1.9-3.8-2.8-5.6c-5.1,1.7-10.2,3.3-15.3,5c-1.2-4.6-1.4-9.5-0.8-14.2
				c-4.1-0.2-8.2,0.6-11.9,2.3c0.1-2.5,0.3-5,0.4-7.5c-2.1,1.5-4.2,2.9-6.3,4.4c0.1-4.3-0.3-8.6-1.4-12.8c-4.3,3.5-9.3,6.1-14.6,7.5
				c0.7-4.5,0.2-9.2-1.5-13.5c-2.8,3.4-6.4,6.1-10.4,7.8c1.1-3,1.4-6.4,0.8-9.5c-1.2,0.9-2.4,1.7-3.6,2.6c0.5-1.3-0.1-3.4-1.7-3.8
				c-2.2-0.7-4.5,0.8-6.3,2.3c0.9-2.3,1.8-4.6,2.7-6.9c-2.2,1.1-4.3,2.1-6.5,3.2c0.3-9.2-0.4-18.5-2.2-27.5
				c-3.7,1.2-6.9,3.8-8.8,7.1c-0.3-6.1-0.7-12.3-1-18.4c-3.4,2.5-6.8,5-10.2,7.5c0.2-6.4,1.1-12.8,2.9-18.9c-4,1.7-7.9,3.3-11.9,5
				c1.8-4.6,3.6-9.2,5.3-13.8c-3.6,1.9-7.3,3.8-10.9,5.6c-0.1-8.7,2.7-17.4,7.9-24.4c-3.8,1.5-7.6,3.1-11.4,4.6
				c5-10,9.9-20.1,14.9-30.1c-3.9,1.3-7.7,2.7-11.5,4c0.8-10.5,3.1-21,6.7-30.9c-6.7,3-13.5,6-20.2,9c3.7-13.2,12-25,23.1-33.1
				c-5.6,2.4-11.2,4.8-16.8,7.2c6.6-10.1,13.1-20.2,19.6-30.3c-4.3,0.3-8.7,0.6-13,0.9c3.8-4.1,7.6-8.1,11.4-12.2
				c-3.9,0.5-7.9-0.7-11-3.2c6.9-5.9,13.9-11.8,20.8-17.8c-5-1.1-10.1-1.6-15.3-1.2c9.7-6.3,19.3-12.6,29-18.9
				c-6.4-2.2-13.7-1.8-19.8,1.3c8.9-5.7,17.8-11.4,26.7-17.2c-7.1-2.6-14.7-3.9-22.2-3.8c9.8-5.4,8.5-7.4,18.2-12.8
				c-3.2-2.2-12.2-7.6-15.4-9.7c3.7,0.8,7.6,0.8,11.3-0.1c-7.7-3.5-14.2-9.8-18.4-17.7c3.7,1,7.4,2.1,11,3.1
				c-5.4-4.8-9.7-11-12.7-17.9c4.7,1.4,9.3,2.7,14,4.1c-6.1-7.1-12.2-14.1-18.3-21.1c3.6-0.2,7.2-0.3,10.8-0.4
				c-3.3-3.7-6.7-7.3-10-11c1.5-2.4,2.5-5.3,2.8-8.2c3,1.3,6,2.6,9,3.9c-3.2-7.9-5.2-16.4-6-25c2.4,3.4,7.9,1.2,9.4-2.8
				c1.5-4,0.4-8.6-0.7-12.7c2.6-6.3,5.2-12.5,7.7-18.8c1.7,1.7,3.3,3.3,5,5c-1.5-5.5,3.9-10.3,9-11.6c5-1.3,10.7-1,14.9-4.3
				c3.9,3.2,9.9,2.8,13.5-0.8c0.5,2.9,1,5.9,1.5,8.8c3-0.7,5.9-1.4,8.9-2.1c-1.2,3.2,3,6.7,5.5,4.7c1.7,4.2,3.9,8.2,6.7,11.7
				c1.5-4.3,4.7-7.9,8.6-9.5c-1,4.6-1.9,9.2-2.9,13.9c2.3-2.1,5.4-3.1,8.3-2.5c-0.9,0.9-1.9,1.9-1.9,3.3c0.1,1.3,2.2,2,2.4,0.7
				c0.1,2.1-1.1,4.3-2.8,5.1c3.2-1.2,6.8-0.7,9.6,1.3c-3-1.9-4.4,5.7-2.5,8.8c3.2,0.1,5.9-2.9,6.7-6c0.8-3.1,0.1-6.5-0.5-9.6
				c1.3,1.9,2.6,3.8,3.9,5.7c1.6-3.8,3.2-7.6,4.8-11.4c1.4,2.4,2.8,4.8,4.1,7.2c0.7-2.8,2.4-5.4,4.8-7.1c0.9,1.8,1.9,3.7,2.8,5.5
				c3.8-4.8,7.6-9.6,11.4-14.3c1.5,2.4,3,4.9,4.5,7.3c3.6-1.4,4-6.9,7.4-8.7c2.4-1.3,5.4-0.2,7.2,1.7c1.9,1.9,2.8,4.5,3.7,7
				c3.1-5.3,6.6-10.4,10.5-15.2c0.9,1.7,1.8,3.4,2.7,5.1c1-4.2,3.3-8.2,6.4-11.2c2.3,3.9,5.6,7.2,9.5,9.5c2.2-2.1,4.3-4.3,6.5-6.4
				c-1.5,3.4,1,8,4.7,8.5c3.7,0.5,7.3-3.3,6.6-7c2.9,2.1,5.8,4.2,8.7,6.3c1.3-2.5,2.6-5,3.9-7.5c1.9,3.6,4.3,7.3,7.8,9.4
				c3.5,2.1,8.5,2.4,11.4-0.5c-1.1,2.1,3,3,5,1.6c1.9-1.4,4.7-3.5,6.3-1.7c1.9,2-0.3,7.1,2.4,7.1c0-2.7,2.7-5.1,5.4-4.7
				c2.7,0.4,4.6,3.5,3.7,6c2.1-1.3,4.2-2.5,6.3-3.8c1.1,2.3,2.1,4.6,3.2,6.9c1.5-2.6,4.7-3.9,7.5-3.3c2.9,0.7,5.1,3.3,5.4,6.2
				c0.3,3.3-0.9,8.3,2.4,8.8c2.5-3.6,5.5-6.8,8.9-9.5c1.8,5.4,7.7,9,13.3,8c0.4,1.3,0.8,2.6,1.2,3.9c3.6-2.1,6-6.1,6.3-10.3
				c1.4,0.3,2.7,0.6,4.1,0.8c1.3-4.9,1.4-10.1,0.3-15c2.4,1.3,4.2,3.7,4.6,6.4c0.7-2.5,1.3-5.1,2-7.6c1.1,0.5,2.2,1.1,3.3,1.6
				c1.7-3.5,4-6.7,6.8-9.5c1.1,2.5,2.1,5,3.2,7.5c2-4.5,8.1-6.5,12.4-4.1c0.3-2.2,0.5-4.4,0.8-6.6c2.6,0.4,5,1.9,6.4,4.2
				c1.3-0.8,2.5-1.6,3.8-2.4c0.9,1.3,1.8,2.5,2.8,3.7c0.7-0.2,1.4-0.6,1.9-1.2l0.3,0.2c3.6-0.7,8.7,3,6.1,5.7
				c4.8-0.3,9.7,0.1,14.4,1.4c-2,1.9-4.5,3.3-7.2,3.8c5.1,1.2,10.2,2.4,15.3,3.7c-1.8,1-3.7,1.9-5.5,2.9c1.8-0.2,3.7,0.3,5.1,1.5
				c-0.8,2.1-1.6,4.3-2.4,6.4c3.6,0.2,7.1,1.2,10.3,2.9c-3.7,2.6-7,5.9-9.6,9.6c5-1,10.5,1.1,13.8,5.3c-3,2.9-7.7,3.8-11.5,2
				c4,2.9,7.9,5.9,11.9,8.8c-3.8,2.3-8.2,3.5-12.5,3.4c2.6,3.1,5.3,6.2,7.9,9.3c-3.1,1-6.2,2-9.2,3c2.3,1.1,4.6,2.3,6.9,3.5
				c-1.9,3.5-5.4,5.9-9.2,6.4c2,1,4,2,6,3c-1.1,2.8-3.2,5.1-5.7,6.4c1.5,1.4,3,2.8,4.5,4.3c-1.5,1.5-2.9,3-4.4,4.5
				c1.2,1.5,2.4,2.9,3.6,4.4c-3.7,2.4-7.9,7.7-4.6,10.8c-2,0.9-3.9,1.7-5.8,2.6c1.5,4.6-1.9,10.2-6.4,10.6c1.7,2.3,3.4,4.7,5.1,7
				c-0.7,0.3-1.1,0.4-1.2,0.5c0,0,0,0,0,0c0,0,0,0,0,0l0,0c0,0,0,0,0,0c-0.2,0.1-0.5,0.2-1.2,0.4c-4.5-1.7-5.5,1.6-10.1,2.8
				c7.7,5.4,15.3,10.8,23,16.2c-5.9-0.1-11.9,1.1-17.5,3.8c7,5.7,14,11.4,21,17.2c-4.7-3.1-10.5-3.5-15.5-1.3
				c7.6,6.3,15.2,12.6,22.8,18.9c-4-0.3-8.1,0.1-12,1.2c5.4,5.9,10.9,11.9,16.3,17.8c-2.4,2.5-5.5,3.6-8.6,3.2c3,4,6,8.1,8.9,12.2
				c-3.4-0.3-6.8-0.6-10.2-0.9c5.1,10.1,10.3,20.2,15.4,30.3c-4.4-2.4-8.8-4.8-13.2-7.2c8.7,8.1,15.2,19.9,18.1,33.1
				c-5.3-3-10.6-6-15.8-9c2.8,9.9,4.6,20.4,5.2,30.9c-3-1.4-6-2.7-9-4c3.9,10,7.8,20.1,11.7,30.1c-3-1.5-6-3-8.9-4.6
				c4.1,7,6.3,15.7,6.2,24.4c-2.9-1.9-5.7-3.8-8.6-5.6c1.4,4.6,2.8,9.2,4.2,13.8c-3.1-1.7-6.2-3.3-9.4-5c1.4,6.2,2.2,12.5,2.3,18.9
				c-2.7-2.5-5.3-5-8-7.5c-0.3,6.1-0.5,12.3-0.8,18.4c-1.5-3.3-4-5.9-6.9-7.1c-1.4,9.1-2,18.3-1.7,27.5c-1.7-1.1-3.4-2.1-5.1-3.2
				c0.7,2.3,1.4,4.6,2.1,6.9c-1.4-1.4-3.2-2.9-5-2.3c-1.2,0.5-1.7,2.5-1.3,3.8c-0.9-0.9-1.9-1.7-2.8-2.6c-0.5,3.2-0.3,6.5,0.6,9.5
				c-3.2-1.7-6-4.4-8.2-7.8c-1.3,4.3-1.7,9-1.2,13.5c-4.2-1.5-8.1-4.1-11.4-7.5c-0.8,4.2-1.2,8.5-1.1,12.8c-1.7-1.5-3.3-2.9-5-4.4
				c0.1,2.5,0.2,5,0.3,7.5c-2.9-1.7-6.2-2.5-9.4-2.3c0.5,4.7,0.3,9.5-0.6,14.2c-4-1.7-8-3.3-12-5c-0.7,1.9-1.5,3.8-2.2,5.6
				c-2.7-3.3-8.5-5.3-8.9-0.6c-1.9,0-3.3-2-4.5-3.8c-1.2-1.8-2.7-3.8-4.6-3.6c-1.8,0.2-2.9,3.8-1.4,4.8c-2.2-1.2-4.3-2.3-6.5-3.4
				c-2.6,2.3-6.6,1.3-8.4-2c-0.2,2.1-0.5,4.3-0.7,6.4c-8.5-5.5-18.1-8-27.6-7.4c-8.3-2.4-13.2-5.2-19.3-10.3
				C480.8,508.5,470.2,515.3,448.7,510z"/>
			<radialGradient id="SVGID_3_" cx="564.2992" cy="85.2908" r="449.3284" gradientUnits="userSpaceOnUse">
				<stop  offset="0" style="stop-color:#EBD792"/>
				<stop  offset="0" style="stop-color:#EBD79A"/>
				<stop  offset="0" style="stop-color:#EBD7A5"/>
				<stop  offset="0" style="stop-color:#EBD7AC"/>
				<stop  offset="0" style="stop-color:#EBD7AE"/>
				<stop  offset="5.939704e-02" style="stop-color:#D8C49E"/>
				<stop  offset="0.203" style="stop-color:#B09C7C"/>
				<stop  offset="0.3509" style="stop-color:#8F7B60"/>
				<stop  offset="0.5019" style="stop-color:#75614A"/>
				<stop  offset="0.6572" style="stop-color:#624E3A"/>
				<stop  offset="0.8195" style="stop-color:#584431"/>
				<stop  offset="1" style="stop-color:#54402E"/>
			</radialGradient>
			<path class="st3" d="M616.1,495.2c0.4,0.4,0.8,0.7,1.1,1.1C616.7,496.2,616.3,495.8,616.1,495.2z"/>
			<linearGradient id="SVGID_4_" gradientUnits="userSpaceOnUse" x1="531.2159" y1="65.5779" x2="301.2159" y2="451.5779">
				<stop  offset="0" style="stop-color:#EBD7AE"/>
				<stop  offset="4.265273e-02" style="stop-color:#CAB692"/>
				<stop  offset="9.349956e-02" style="stop-color:#AB9777"/>
				<stop  offset="0.1511" style="stop-color:#8F7B60"/>
				<stop  offset="0.2161" style="stop-color:#79654E"/>
				<stop  offset="0.2921" style="stop-color:#68543F"/>
				<stop  offset="0.3861" style="stop-color:#5D4935"/>
				<stop  offset="0.5178" style="stop-color:#564230"/>
				<stop  offset="0.8837" style="stop-color:#54402E"/>
				<stop  offset="1" style="stop-color:#54402E"/>
			</linearGradient>
			<path class="st4" d="M274.2,496.3c0.5-0.4,1-0.7,1.4-1.1C275.4,495.8,274.9,496.2,274.2,496.3z"/>
		</g>
		<g>
			<path class="st1" d="M367.5,525.7c0.1,0,0.2-0.1,0.3-0.1c2.8-1.2,5.5-2.3,8.2-3.4c3.3,2.3,8.4,1.3,10.7-2
				c0.3,2.1,0.6,4.3,0.9,6.4c10.8-5.5,23.1-8,35.2-7.4c11.5-2.5,16.3-2.3,25.9-9.1"/>
			<path class="st1" d="M275.6,495.2c1.2-0.9,2.4-1.7,3.6-2.6c0.6,3.2,0.3,6.5-0.8,9.5c4-1.7,7.6-4.4,10.4-7.8
				c1.7,4.3,2.2,9,1.5,13.5c5.3-1.5,10.3-4.1,14.6-7.5c1,4.2,1.5,8.5,1.4,12.8c2.1-1.5,4.2-2.9,6.3-4.4c-0.1,2.5-0.3,5-0.4,7.5
				c3.7-1.7,7.8-2.5,11.9-2.3c-0.6,4.7-0.4,9.5,0.8,14.2c5.1-1.7,10.2-3.3,15.3-5c0.9,1.9,1.9,3.8,2.8,5.6
				c3.4-3.3,10.8-5.3,11.3-0.6c2.4,0,4.2-2,5.8-3.8c1.6-1.8,3.5-3.8,5.9-3.6c2.3,0.2,3.7,3.8,1.8,4.8"/>
			<path class="st1" d="M275.6,495.2c-0.2,0.6-0.7,1-1.4,1.1C274.6,495.9,275.1,495.6,275.6,495.2z"/>
			<path class="st1" d="M264.3,227.8c-9.8,5.4-8.5,7.4-18.2,12.8c7.6-0.1,15.2,1.1,22.2,3.8c-8.9,5.7-17.8,11.4-26.7,17.2
				c6.1-3.1,13.4-3.5,19.8-1.3c-9.7,6.3-19.3,12.6-29,18.9c5.1-0.3,10.3,0.1,15.3,1.2c-6.9,5.9-13.9,11.9-20.8,17.8
				c3,2.5,7.1,3.6,11,3.2c-3.8,4-7.6,8.1-11.4,12.2c4.3-0.3,8.7-0.6,13-0.9c-6.6,10.1-13.1,20.2-19.6,30.3
				c5.6-2.4,11.2-4.8,16.8-7.2c-11.1,8.1-19.3,19.9-23.1,33.1c6.7-3,13.5-6,20.2-9c-3.6,9.9-5.9,20.4-6.7,30.9
				c3.8-1.4,7.7-2.7,11.5-4c-5,10-9.9,20.1-14.9,30.1c3.8-1.5,7.6-3,11.4-4.6c-5.2,7-8,15.7-7.9,24.4c3.6-1.9,7.3-3.8,10.9-5.6
				c-1.8,4.6-3.6,9.2-5.3,13.8c4-1.7,7.9-3.3,11.9-5c-1.8,6.2-2.8,12.5-2.9,18.9c3.4-2.5,6.8-5,10.2-7.5c0.3,6.1,0.7,12.3,1,18.4
				c1.9-3.3,5.2-5.9,8.8-7.1c1.8,9.1,2.5,18.3,2.2,27.5c2.2-1.1,4.3-2.1,6.5-3.2c-0.9,2.3-1.8,4.6-2.7,6.9c1.9-1.4,4.1-2.9,6.3-2.3
				c1.5,0.5,2.2,2.5,1.7,3.8"/>
			<path class="st1" d="M544,525.7c-0.1,0-0.1-0.1-0.2-0.1c-2.2-1.2-4.3-2.3-6.5-3.4c-2.6,2.3-6.6,1.3-8.4-2
				c-0.2,2.1-0.5,4.3-0.7,6.4c-8.5-5.5-18.1-8-27.6-7.4c-8.3-2.4-13.2-5.2-19.3-10.3c-0.5-0.4-11.2,6.4-32.6,1.1
				c-0.4-0.1-0.7-0.2-1.1-0.3"/>
			<path class="st1" d="M616.1,495.2c-0.9-0.9-1.9-1.7-2.8-2.6c-0.5,3.2-0.3,6.5,0.6,9.5c-3.2-1.7-6-4.4-8.2-7.8
				c-1.3,4.3-1.7,9-1.2,13.5c-4.2-1.5-8.1-4.1-11.4-7.5c-0.8,4.2-1.2,8.5-1.1,12.8c-1.7-1.5-3.3-2.9-5-4.4c0.1,2.5,0.2,5,0.3,7.5
				c-2.9-1.7-6.2-2.5-9.4-2.3c0.5,4.7,0.3,9.5-0.6,14.2c-4-1.7-8-3.3-12-5c-0.7,1.9-1.5,3.8-2.2,5.6c-2.7-3.3-8.5-5.3-8.9-0.6
				c-1.9,0-3.3-2-4.5-3.8c-1.2-1.8-2.7-3.8-4.6-3.6c-1.8,0.2-2.9,3.8-1.4,4.8"/>
			<path class="st1" d="M616.1,495.2c0.2,0.6,0.5,1,1.1,1.1C616.9,495.9,616.5,495.6,616.1,495.2z"/>
			<path class="st1" d="M626.5,221.6c-4.5-1.7-5.5,1.6-10.1,2.8c7.7,5.4,15.3,10.8,23,16.2c-5.9-0.1-11.9,1.1-17.5,3.8
				c7,5.7,14,11.4,21,17.2c-4.7-3.1-10.5-3.5-15.5-1.3c7.6,6.3,15.2,12.6,22.8,18.9c-4-0.3-8.1,0.1-12,1.2
				c5.4,5.9,10.9,11.9,16.3,17.8c-2.4,2.5-5.5,3.6-8.6,3.2c3,4,6,8.1,8.9,12.2c-3.4-0.3-6.8-0.6-10.2-0.9
				c5.1,10.1,10.3,20.2,15.4,30.3c-4.4-2.4-8.8-4.8-13.2-7.2c8.7,8.1,15.2,19.9,18.1,33.1c-5.3-3-10.6-6-15.8-9
				c2.8,9.9,4.6,20.4,5.2,30.9c-3-1.4-6-2.7-9-4c3.9,10,7.8,20.1,11.7,30.1c-3-1.5-6-3-8.9-4.6c4.1,7,6.3,15.7,6.2,24.4
				c-2.9-1.9-5.7-3.8-8.6-5.6c1.4,4.6,2.8,9.2,4.2,13.8c-3.1-1.7-6.2-3.3-9.4-5c1.4,6.2,2.2,12.5,2.3,18.9c-2.7-2.5-5.3-5-8-7.5
				c-0.3,6.1-0.5,12.3-0.8,18.4c-1.5-3.3-4-5.9-6.9-7.1c-1.4,9.1-2,18.3-1.7,27.5c-1.7-1.1-3.4-2.1-5.1-3.2c0.7,2.3,1.4,4.6,2.1,6.9
				c-1.4-1.4-3.2-2.9-5-2.3c-1.2,0.5-1.7,2.5-1.3,3.8"/>
			<path class="st1" d="M627.7,221.1C627.7,221.1,627.7,221.1,627.7,221.1"/>
			<path class="st1" d="M627.8,221.1C627.8,221.1,627.8,221.1,627.8,221.1"/>
			<line class="st1" x1="627.7" y1="221.1" x2="627.7" y2="221.1"/>
			<polyline class="st1" points="627.7,221.1 627.7,221.1 627.7,221.1 			"/>
			<path class="st1" d="M612.2,87.2c3.6-0.7,8.7,3,6.1,5.7c4.8-0.3,9.7,0.1,14.4,1.4c-2,1.9-4.5,3.3-7.2,3.8
				c5.1,1.2,10.2,2.4,15.3,3.7c-1.8,1-3.7,1.9-5.5,2.9c1.8-0.2,3.7,0.3,5.1,1.5c-0.8,2.1-1.6,4.3-2.4,6.4c3.6,0.2,7.1,1.2,10.3,2.9
				c-3.7,2.6-7,5.9-9.6,9.6c5-1,10.5,1.1,13.8,5.3c-3,2.9-7.7,3.8-11.5,2c4,2.9,7.9,5.9,11.9,8.8c-3.8,2.3-8.2,3.5-12.5,3.4
				c2.6,3.1,5.3,6.2,7.9,9.3c-3.1,1-6.2,2-9.2,3c2.3,1.1,4.6,2.3,6.9,3.5c-1.9,3.5-5.4,5.9-9.2,6.4c2,1,4,2,6,3
				c-1.1,2.8-3.2,5.1-5.7,6.4c1.5,1.4,3,2.8,4.5,4.3c-1.5,1.5-2.9,3-4.4,4.5c1.2,1.5,2.4,2.9,3.6,4.4c-3.7,2.4-7.9,7.7-4.6,10.8
				c-2,0.9-3.9,1.7-5.8,2.6c1.5,4.6-1.9,10.2-6.4,10.6c1.7,2.3,3.4,4.7,5.1,7c-0.7,0.3-1.1,0.4-1.2,0.5c0,0,0,0,0,0c0,0,0,0,0,0
				c0,0,0,0,0,0c0,0,0,0,0,0c-0.2,0.1-0.5,0.2-1.2,0.4"/>
			<path class="st1" d="M264.3,227.8c-3.2-2.2-12.2-7.6-15.4-9.7c3.7,0.8,7.6,0.8,11.3-0.1c-7.7-3.5-14.2-9.8-18.4-17.7
				c3.7,1,7.4,2.1,11,3.1c-5.4-4.8-9.7-11-12.7-17.9c4.7,1.4,9.3,2.7,14,4.1c-6.1-7.1-12.2-14.1-18.3-21.1c3.6-0.2,7.2-0.3,10.8-0.4
				c-3.3-3.7-6.7-7.3-10-11c1.5-2.4,2.5-5.3,2.8-8.2c3,1.3,6,2.6,9,3.9c-3.2-7.9-5.2-16.4-6-25c2.4,3.4,7.9,1.2,9.4-2.8
				c1.5-4,0.4-8.6-0.7-12.7c2.6-6.3,5.2-12.5,7.7-18.8c1.7,1.7,3.3,3.3,5,5c-1.5-5.5,3.9-10.3,9-11.6c5-1.3,10.7-1,14.9-4.3
				c3.9,3.2,9.9,2.8,13.5-0.8c0.5,2.9,1,5.9,1.5,8.8c3-0.7,5.9-1.4,8.9-2.1c-1.2,3.2,3,6.7,5.5,4.7c1.7,4.2,3.9,8.2,6.7,11.7
				c1.5-4.3,4.7-7.9,8.6-9.5c-1,4.6-1.9,9.2-2.9,13.9c2.3-2.1,5.4-3.1,8.3-2.5c-0.9,0.9-1.9,1.9-1.9,3.3c0.1,1.3,2.2,2,2.4,0.7
				c0.1,2.1-1.1,4.3-2.8,5.1c3.2-1.2,6.8-0.7,9.6,1.3c-3-1.9-4.4,5.7-2.5,8.8"/>
			<path class="st1" d="M342.8,125.6c3.2,0.1,5.9-2.9,6.7-6c0.8-3.1,0.1-6.5-0.5-9.6c1.3,1.9,2.6,3.8,3.9,5.7
				c1.6-3.8,3.2-7.6,4.8-11.4c1.4,2.4,2.8,4.8,4.1,7.2c0.7-2.8,2.4-5.4,4.8-7.1c0.9,1.8,1.9,3.7,2.8,5.5c3.8-4.8,7.6-9.6,11.4-14.3
				c1.5,2.4,3,4.9,4.5,7.3c3.6-1.4,4-6.9,7.4-8.7c2.4-1.3,5.4-0.2,7.2,1.7c1.9,1.9,2.8,4.5,3.7,7c3.1-5.3,6.6-10.4,10.5-15.2
				c0.9,1.7,1.8,3.4,2.7,5.1c1-4.2,3.3-8.2,6.4-11.2c2.3,3.9,5.6,7.2,9.5,9.5c2.2-2.1,4.3-4.3,6.5-6.4c-1.5,3.4,1,8,4.7,8.5
				c3.7,0.5,7.3-3.3,6.6-7c2.9,2.1,5.8,4.2,8.7,6.3c1.3-2.5,2.6-5,3.9-7.5c1.9,3.6,4.3,7.3,7.8,9.4c3.5,2.1,8.5,2.4,11.4-0.5
				c-1.1,2.1,3,3,5,1.6c1.9-1.4,4.7-3.5,6.3-1.7c1.9,2-0.3,7.1,2.4,7.1c0-2.7,2.7-5.1,5.4-4.7c2.7,0.4,4.6,3.5,3.7,6
				c2.1-1.3,4.2-2.5,6.3-3.8c1.1,2.3,2.1,4.6,3.2,6.9c1.5-2.6,4.7-3.9,7.5-3.3c2.9,0.7,5.1,3.3,5.4,6.2c0.3,3.3-0.9,8.3,2.4,8.8
				c2.5-3.6,5.5-6.8,8.9-9.5c1.8,5.4,7.7,9,13.3,8c0.4,1.3,0.8,2.6,1.2,3.9c3.6-2.1,6-6.1,6.3-10.3c1.4,0.3,2.7,0.6,4.1,0.8
				c1.3-4.9,1.4-10.1,0.3-15c2.4,1.3,4.2,3.7,4.6,6.4c0.7-2.5,1.3-5.1,2-7.6c1.1,0.5,2.2,1.1,3.3,1.6c1.7-3.5,4-6.7,6.8-9.5
				c1.1,2.5,2.1,5,3.2,7.5c2-4.5,8.1-6.5,12.4-4.1c0.3-2.2,0.5-4.4,0.8-6.6c2.6,0.4,5,1.9,6.4,4.2c1.3-0.8,2.5-1.6,3.8-2.4
				c0.9,1.3,1.8,2.5,2.8,3.7c0.7-0.2,1.4-0.6,1.9-1.2c0.3-0.4,0.6-0.9,0.7-1.4"/>
		</g>
	</g>
</g>
<g id="XMLID_2_">
	<g>
		<path class="st5" d="M278.9,166.6c-1.1-0.2-2.3-0.2-3.5-0.1C276.6,166.5,277.8,166.5,278.9,166.6z M279,166.6
			c7.7,1.2,14.5,8.2,14.9,16.1c-4.9,0.8-9.7,1.6-14.6,2.4c2.3,1.2,4.6,2.3,7,3.5c-6.5,6.5-11.2,8.7-14.9,17.1
			c-18.1-26.2-21.4-55.4-14-86.3c2.5-10.7,9-22.8,19.9-23.3c3.7-0.2,7.3,1.1,10.7,2.5c17.2,7.1,32.3,19.1,43.3,34.1
			c-11.3,1.8-23.5-2.8-30.9-11.5c-2.1,7.7,1.9,16.7,8.9,20.5c-11.5-5.2-23.5-9.5-35.7-12.7c11.2,3.1,19.8,13.7,20.8,25.2
			c-6.1-7.1-15.6-11.2-25-10.7c5.8,12.4,17.9,21.6,31.3,24C293.5,167.2,286.2,166.9,279,166.6z"/>
	</g>
	<g>
		<path class="st6" d="M279,166.6c7.7,1.2,14.5,8.2,14.9,16.1c-4.9,0.8-9.7,1.6-14.6,2.4c2.3,1.2,4.6,2.3,7,3.5
			c-6.5,6.5-11.2,8.7-14.9,17.1"/>
		<path class="st6" d="M278.9,166.6c-1.2,0-2.3-0.1-3.5-0.1C276.6,166.3,277.8,166.4,278.9,166.6z"/>
		<path class="st6" d="M278.9,166.6C279,166.6,279,166.6,278.9,166.6"/>
		<path class="st6" d="M309.2,141.6c-11.5-5.2-23.5-9.5-35.7-12.7c11.2,3.1,19.8,13.7,20.8,25.2c-6.1-7.1-15.6-11.2-25-10.7
			c5.8,12.4,17.9,21.6,31.3,24c-7.2-0.3-14.5-0.6-21.7-0.9"/>
		<path class="st6" d="M309.2,141.6c0.7,0.4,1.4,0.7,2.1,1C310.6,142.3,309.9,142,309.2,141.6z"/>
		<path class="st6" d="M271.3,205.6c-18.1-26.2-21.4-55.4-14-86.3c2.5-10.7,9-22.8,19.9-23.3c3.7-0.2,7.3,1.1,10.7,2.5
			c17.2,7.1,32.3,19.1,43.3,34.1c-11.3,1.8-23.5-2.8-30.9-11.5c-2.1,7.7,1.9,16.7,8.9,20.5"/>
	</g>
</g>
<g id="XMLID_3_">
	<g>
		<path class="st5" d="M600,166.6c1.1,0,2.2-0.1,3.3-0.1C602.2,166.3,601.1,166.4,600,166.6z M599.9,166.6
			c-6.9,0.3-13.8,0.6-20.6,0.9c12.8-2.4,24.2-11.6,29.8-24c-8.9-0.6-18,3.5-23.7,10.7c0.9-11.5,9.1-22.1,19.7-25.2
			c-11.6,3.2-22.9,7.5-33.9,12.7c6.6-3.8,10.4-12.7,8.4-20.4c-7,8.8-18.5,13.3-29.3,11.5c10.4-15,24.8-27,41.1-34.1
			c3.2-1.4,6.7-2.7,10.2-2.5c10.4,0.5,16.5,12.6,18.9,23.3c7,30.9,1,64.9-16.2,91c-3.6-8.4-5.1-15.4-11.3-21.8
			c2.2-1.2,4.4-2.3,6.6-3.5c-4.6-0.8-9.2-1.6-13.8-2.4C586.2,174.8,592.6,167.8,599.9,166.6z"/>
		<path class="st5" d="M603.3,166.4c-1.1,0.1-2.2,0.1-3.3,0.1C601.1,166.4,602.2,166.3,603.3,166.4z"/>
		<path class="st5" d="M569.2,142.6c0.7-0.3,1.4-0.7,2.1-1C570.6,142,569.9,142.3,569.2,142.6z"/>
	</g>
	<g>
		<path class="st6" d="M599.9,166.6c-7.3,1.2-13.8,8.2-14.1,16.1c4.6,0.8,9.2,1.6,13.8,2.4c-2.2,1.2-4.4,2.3-6.6,3.5
			c6.2,6.5,7.7,13.5,11.3,21.8"/>
		<path class="st6" d="M600,166.6c1.1,0,2.2-0.1,3.3-0.1C602.2,166.3,601.1,166.4,600,166.6z"/>
		<path class="st6" d="M600,166.6C600,166.6,600,166.6,600,166.6"/>
		<path class="st6" d="M571.2,141.6c10.9-5.2,22.3-9.4,33.9-12.7c-10.6,3.1-18.9,13.7-19.7,25.2c5.8-7.1,14.8-11.2,23.7-10.7
			c-5.6,12.4-17,21.6-29.8,24c6.9-0.3,13.7-0.6,20.6-0.9"/>
		<path class="st6" d="M571.2,141.6c-0.7,0.4-1.3,0.7-2.1,1C569.9,142.3,570.5,141.9,571.2,141.6z"/>
		<path class="st6" d="M604.3,210.4c17.2-26.1,23.3-60.1,16.2-91c-2.4-10.7-8.5-22.8-18.9-23.3c-3.5-0.2-6.9,1.1-10.2,2.5
			c-16.3,7.1-30.7,19.1-41.1,34.1c10.8,1.8,22.3-2.8,29.3-11.5c2,7.7-1.8,16.6-8.4,20.4"/>
	</g>
</g>
<g>
	<g id="XMLID_1_">
		<g>
			<path d="M475.7,468c2.6-0.9,7.3-5.3,9.3-7.5c2.3-2.3,2.8-5.5,1.4-8.1c-1.7-3.1-6.5-3.2-8.7-0.4s-1.9,5.4-1.9,8.9
				C475.7,463.2,475.7,465.6,475.7,468z M446.4,465.3c0.5-4.3,0.8-7.8-1.9-11.3c-1.1-1.5-2.7-2.6-4.4-3.2c-3.1-1.1-7.5,0.5-7.5,3.8
				c0,2.3,1.9,5,3.9,6.4C439.6,463.1,440.5,463,446.4,465.3z M475.4,478.6c-0.2,1.1-0.5,2.3-1.1,3.3c-1.7,3.3-5.4,5.2-9.1,5.6
				c-3.7,0.4-7.4-0.6-10.8-2c-2-0.8-3.9-1.7-5.4-3.3c-1.6-1.7-2.4-4.1-2.8-6.7h0c-8.3-2.9-22.4-10-24.9-18.4
				c-1-3.3-0.8-6.8-0.2-10.2c2.7-18,13.1-34.7,28.1-45.1c1.9-1.4,4-2.6,6.3-3.4c2.7-0.9,5.7-1,8.5-0.7c9.7,1.1,18.1,7.4,24.4,14.8
				c8.1,9.6,13.4,22.1,11.6,34.5C498.2,459.2,488.8,472.9,475.4,478.6z"/>
		</g>
		<g>
		</g>
	</g>
</g>
<g>
	<g>
		<path class="st7" d="M340.9,335.1c2.9-6.6,6.3-12.9,10.2-18.9c4.3-6.5,9-12.6,17.6-12.5c15.6,0.2,22.6,16.4,29.7,27.7
			c1.7,2.7,6,0.2,4.3-2.5c-8.2-13.2-16.1-30-34-30.2c-17.2-0.2-26.3,20.6-32.1,33.9C335.3,335.5,339.6,338.1,340.9,335.1
			L340.9,335.1z"/>
	</g>
</g>
<g>
	<g>
		<path class="st7" d="M502.9,330.9c2.9-6.6,6.3-12.9,10.2-18.9c4.3-6.5,9-12.6,17.6-12.5c15.6,0.2,22.6,16.4,29.7,27.7
			c1.7,2.7,6,0.2,4.3-2.5c-8.2-13.2-16.1-30-34-30.2c-17.2-0.2-26.3,20.6-32.1,33.9C497.3,331.2,501.6,333.8,502.9,330.9
			L502.9,330.9z"/>
	</g>
</g>
<g>
	<g>
		<path class="st7" d="M392.7,446.9c-10.4,29.4,21.2,54.2,45.2,63.6c25.3,9.9,55.8-1.2,70.7-23.5c9-13.4,12-29.8,10.8-45.7
			c-0.2-3.2-5.2-3.2-5,0c1.2,16.1-2,32.7-11.9,45.8c-9.4,12.4-24.3,20.3-39.7,21.8c-16.7,1.6-31.5-5.8-44.7-15.4
			c-14.1-10.3-27-26.9-20.5-45.3C398.6,445.2,393.7,443.9,392.7,446.9L392.7,446.9z"/>
	</g>
</g>
<line class="st8" x1="509.2" y1="442.9" x2="617.8" y2="403.3"/>
<line class="st8" x1="509.5" y1="453.4" x2="643.2" y2="428"/>
<line class="st8" x1="509" y1="462.8" x2="670.5" y2="460"/>
<line class="st8" x1="506.2" y1="471.4" x2="613.8" y2="485"/>
<line class="st8" x1="403.9" y1="447" x2="295" y2="407.3"/>
<line class="st8" x1="400.5" y1="456.8" x2="269.7" y2="432"/>
<line class="st8" x1="400.5" y1="466.8" x2="242.4" y2="464"/>
<line class="st8" x1="405.1" y1="475.6" x2="299" y2="489"/>
<g>
	<g id="XMLID_5_">
		<g>
			<linearGradient id="SVGID_5_" gradientUnits="userSpaceOnUse" x1="205.8066" y1="597.1771" x2="294.3022" y2="739.6699">
				<stop  offset="0" style="stop-color:#5C4A3B"/>
				<stop  offset="3.744924e-02" style="stop-color:#554235"/>
				<stop  offset="0.1463" style="stop-color:#453127"/>
				<stop  offset="0.2819" style="stop-color:#39261D"/>
				<stop  offset="0.472" style="stop-color:#331F18"/>
				<stop  offset="1" style="stop-color:#311D16"/>
			</linearGradient>
			<path class="st9" d="M290.6,742.1c-3.5,3.3-9.5,8.4-14.3,8c-4.8-0.4-9.5-2.3-13.6-5c-8.7-5.6-15.1-14-20.4-23
				c-18.7,5.7-31.8-26.5-33.3-44.6c-0.6-7.6,0-15.5-2.6-22.7c-2.7-7.6-8.7-13.7-11.4-21.3c-3.3-9.2-1.4-19.8,3.9-28
				c5.2-8.2,13.4-14.3,22.3-18.3c5.4-2.5,11.2-4.3,17.1-4.8c1.2-0.1,2.5-0.2,3.5,0.4c1.3,0.6,2,2,2.6,3.3c2,4.4,3.1,9.1,4.7,13.6
				c8,22.5,27.4,38.5,45.1,54.7c4.2,3.8,8.4,7.8,11.2,12.7c2.8,4.9,1.1,16-1,21.3c5.9,7,11,14.6,12.4,23.5c0.8,5.4-0.5,12-5.4,14.3
				l-2.4,0.7c1.8,2,3,3.8,3.3,5.2c0.9,4.8-2.6,9.8-7.2,11.5C300.2,745.4,294.9,744.4,290.6,742.1z"/>
		</g>
		<g>
			<path class="st10" d="M242.3,722.2c-18.7,5.7-31.8-26.5-33.3-44.6c-0.6-7.6,0-15.5-2.6-22.7c-2.7-7.6-8.7-13.7-11.4-21.3
				c-3.3-9.2-1.4-19.8,3.9-28c5.2-8.2,13.4-14.3,22.3-18.3c5.4-2.5,11.2-4.3,17.1-4.8c1.2-0.1,2.5-0.2,3.5,0.4c1.3,0.6,2,2,2.6,3.3
				c2,4.4,3.1,9.1,4.7,13.6c8,22.5,27.4,38.5,45.1,54.7c4.2,3.8,8.4,7.8,11.2,12.7c2.8,4.9,1.1,16-1,21.3"/>
			<path class="st10" d="M230.1,699.1c2.3,4.7,4.7,9.3,7.1,14c1.6,3,3.3,6.1,5.1,9.1c5.4,9,11.7,17.4,20.4,23
				c4.1,2.6,8.7,4.6,13.6,5c4.9,0.4,10.8-4.7,14.3-8"/>
			<path class="st10" d="M288.2,672.5c3.3,2.3,6.1,5.3,8.9,8.2c2.4,2.5,4.8,5.1,7,7.7c5.9,7,11,14.6,12.4,23.5
				c0.8,5.4-0.5,12-5.4,14.3"/>
			<path class="st10" d="M251.2,696.2c8.2,13,17.7,25.2,28.2,36.4c3.4,3.6,6.9,7.1,11.2,9.5c4.3,2.3,9.6,3.3,14.2,1.5
				c4.6-1.8,8.1-6.7,7.2-11.5c-0.3-1.5-1.5-3.3-3.3-5.2c-4.5-5-12.1-10.8-14.4-13.8c-6.1-8.3-11.3-18.1-17.1-32.9"/>
		</g>
	</g>
</g>
<g>
	<g id="XMLID_6_">
		<g>
			<linearGradient id="SVGID_6_" gradientUnits="userSpaceOnUse" x1="676.6357" y1="589.8428" x2="591.14" y2="735.3356">
				<stop  offset="0" style="stop-color:#5C4A3B"/>
				<stop  offset="3.675818e-03" style="stop-color:#5B493B"/>
				<stop  offset="0.1706" style="stop-color:#49362A"/>
				<stop  offset="0.3612" style="stop-color:#3B281F"/>
				<stop  offset="0.5957" style="stop-color:#331F18"/>
				<stop  offset="1" style="stop-color:#311D16"/>
			</linearGradient>
			<path class="st11" d="M625.6,729.6c-4.3,3.7-9.5,6.4-15.1,7.8c-4.5,1.1-10.4,0.7-12.2-3.6l-2-1.6c-4.8,2.1-9.8,2.8-14.3,0.5
				c-1.4-0.7-2.7-1.8-3.5-3.1c-0.9-1.6-1.1-3.4-1.1-5.3c0.1-4.3,1.7-8.3,3.9-12.1l-1.7-1c-3.8-1.4-6.4-5.3-7-9.3
				c-0.6-4,0.3-8.2,1.8-12c1.4-3.6,3.4-7,5.7-10.1l-0.9-0.2c-7.4-6.7-2.6-20.1,3.4-28.1c6-8,15.1-12.9,23.1-19
				c14.4-10.9,25.4-26.2,31.3-43.2c1.9-5.5,4.4-12.3,10.2-13.2c2.2-0.3,4.4,0.3,6.5,1.2c17.2,7,27.1,25.6,30.6,43.8
				c1.3,6.8,1.8,13.8,0.5,20.6c-1.4,6.8-4.7,13.1-7.2,19.6c-4.6,11.7-6.7,24.2-10.2,36.3c-3.5,12.1-8.6,24.2-17.8,32.7
				C642.8,736.8,628.5,742.8,625.6,729.6z"/>
		</g>
		<g>
			<path class="st10" d="M579.2,679.7c-7.4-6.7-2.6-20.1,3.4-28.1c6-8,15.1-12.9,23.1-19c14.4-10.9,25.4-26.2,31.3-43.2
				c1.9-5.5,4.4-12.3,10.2-13.2c2.2-0.3,4.4,0.3,6.5,1.2c17.2,7,27.1,25.6,30.6,43.8c1.3,6.8,1.8,13.8,0.5,20.6
				c-1.4,6.8-4.7,13.1-7.2,19.6c-4.6,11.7-6.7,24.2-10.2,36.3c-3.5,12.1-8.6,24.2-17.8,32.7c-6.7,6.3-21,12.2-24-0.9"/>
			<path class="st10" d="M646.9,695.9c-2.3,4.7-4.7,9.4-7.2,14c-3.9,7.2-8,14.4-14.2,19.8c-4.3,3.7-9.5,6.4-15.1,7.8
				c-4.5,1.1-10.4,0.7-12.2-3.6"/>
			<path class="st10" d="M597.2,666.2c-6.7,3-12.6,7.8-17.1,13.7c-2.3,3.1-4.3,6.5-5.7,10.1c-1.5,3.8-2.5,7.9-1.8,12
				c0.7,4,3.2,7.9,7,9.3"/>
			<path class="st10" d="M617.5,671.9c-10.2,9-20.4,19.5-30.6,32.4c-2,2.5-4,5.2-5.6,8c-2.2,3.8-3.8,7.8-3.9,12.1
				c-0.1,1.8,0.1,3.7,1.1,5.3c0.8,1.4,2.1,2.4,3.5,3.1c4.5,2.3,9.6,1.5,14.3-0.5c2.7-1.2,5.3-2.8,7.6-4.5c11.9-8.8,23-25.9,31.7-39"
				/>
		</g>
	</g>
</g>
</svg>
